<svg xmlns="http://www.w3.org/2000/svg" width="128" height="128" viewBox="0 0 33.867 33.867"><path fill="#fbad41" d="M9.646 16.66c2.01-.113 2.82-.99 2.82-3.297V4.224a14.183 14.183 0 0 1-5.601 2.078l-2.781.389v9.97zm2.82 4.979c0-2.42-.896-3.265-3.129-3.31H4.203c.799 6.43 5.198 10.713 8.263 12.962z"/><path fill="#f6821f" d="M26.99 6.302a14.147 14.147 0 0 1-7.641-3.66L16.92 0l-2.403 2.628c-.028.028-.158.161-.384.359v10.459c.02 2.244.835 3.1 2.815 3.215h6.805l-2.74-2.737 1.182-1.179 4.75 4.75-4.75 4.753-1.182-1.18 2.74-2.739H17.26c-2.208.045-3.106.87-3.126 3.226v10.846c.746.459 1.249.712 1.34.757l1.455.709 1.452-.71c.464-.228 11.402-5.695 11.402-16.905V6.699Z"/></svg>