<?xml version="1.0" encoding="UTF-8" standalone="no"?><!DOCTYPE svg PUBLIC "-//W3C//DTD SVG 1.1//EN" "http://www.w3.org/Graphics/SVG/1.1/DTD/svg11.dtd"><svg viewBox="0 0 128 128" xmlns="http://www.w3.org/2000/svg" xml:space="preserve" fill-rule="evenodd" clip-rule="evenodd" stroke-linejoin="round" stroke-miterlimit="2"><path d="M36.5 63C44 62.5 47 59.2 47 50.5V16c-6.4 4-13.6 6.7-21.2 7.8l-10.5 1.5V63h21ZM47 81.8c0-9.2-3.4-12.4-11.8-12.5H15.9c3 24.3 19.6 40.5 31.2 49V81.8Z" fill-rule="nonzero"/><path d="M102 23.8A53.5 53.5 0 0 1 73.1 10L64 0l-9 10-1.5 1.3v39.5c0 8.5 3.2 11.7 10.7 12.2h25.7L79.4 52.6l4.5-4.4 18 18-18 17.9-4.5-4.5 10.4-10.3H65.2c-8.3.1-11.7 3.3-11.8 12.2v41c2.8 1.7 4.7 2.7 5 2.8L64 128l5.5-2.7c1.7-.8 43-21.5 43-63.9v-36L102 23.7Z" fill="#0b0500" fill-rule="nonzero"/></svg>
